<svg width="32" height="32" viewBox="0 0 32 32" fill="none" xmlns="http://www.w3.org/2000/svg">
<rect width="32" height="32" rx="16" fill="url(#paint0_linear_9438_2644)"/>
<path d="M14.8418 10.4283C14.8418 10.3101 14.8651 10.1931 14.9103 10.0839C14.9555 9.97471 15.0218 9.8755 15.1054 9.79192C15.189 9.70835 15.2882 9.64206 15.3974 9.59683C15.5066 9.5516 15.6236 9.52832 15.7418 9.52832H15.7518C15.9905 9.52832 16.2194 9.62314 16.3882 9.79192C16.557 9.96071 16.6518 10.1896 16.6518 10.4283C16.6518 10.667 16.557 10.8959 16.3882 11.0647C16.2194 11.2335 15.9905 11.3283 15.7518 11.3283H15.7418C15.6236 11.3283 15.5066 11.305 15.3974 11.2598C15.2882 11.2146 15.189 11.1483 15.1054 11.0647C15.0218 10.9811 14.9555 10.8819 14.9103 10.7727C14.8651 10.6635 14.8418 10.5465 14.8418 10.4283Z" fill="white"/>
<path fill-rule="evenodd" clip-rule="evenodd" d="M15.7509 16.395L15.2809 16.979L15.2779 16.977L15.2749 16.975L15.2649 16.967L15.2319 16.939L15.1149 16.839C14.5266 16.3142 13.9892 15.735 13.5099 15.109C12.6459 13.977 11.7109 12.325 11.7109 10.429C11.7109 9.35974 12.1357 8.33431 12.8917 7.57826C13.6478 6.82221 14.6732 6.39746 15.7424 6.39746C16.8117 6.39746 17.8371 6.82221 18.5931 7.57826C19.3492 8.33431 19.7739 9.35974 19.7739 10.429C19.7739 12.323 18.8439 13.975 17.9849 15.108C17.5085 15.7332 16.9741 16.3121 16.3889 16.837L16.2719 16.937L16.2389 16.966L16.2289 16.974L16.2259 16.976L16.2249 16.977L15.7509 16.395ZM15.7429 7.89696C15.4104 7.89657 15.081 7.96175 14.7736 8.08878C14.4662 8.21581 14.1869 8.4022 13.9517 8.63727C13.7164 8.87235 13.5298 9.15151 13.4025 9.45877C13.2752 9.76604 13.2098 10.0954 13.2099 10.428C13.2099 11.845 13.9199 13.175 14.7019 14.199C15.0809 14.696 15.4619 15.1 15.7489 15.381C16.0349 15.101 16.4129 14.697 16.7889 14.201C17.5659 13.177 18.2729 11.846 18.2729 10.428C18.2731 10.0956 18.2077 9.76653 18.0806 9.45946C17.9536 9.1524 17.7672 8.87337 17.5323 8.63833C17.2973 8.4033 17.0184 8.21685 16.7114 8.08964C16.4043 7.96243 16.0753 7.89696 15.7429 7.89696Z" fill="white"/>
<path d="M15.7483 16.395L16.2213 16.978C16.0878 17.0862 15.9212 17.1452 15.7493 17.1452C15.5775 17.1452 15.4109 17.0862 15.2773 16.978L15.7483 16.395Z" fill="white"/>
<path d="M12.3152 16.0179C12.6852 16.5019 13.0522 16.9139 13.3672 17.2409V22.9449L18.1212 21.8039V17.2469C18.6731 16.6727 19.1749 16.0524 19.6212 15.3929V21.8089L23.3112 22.7129C23.4217 22.7401 23.5369 22.7417 23.6482 22.7178C23.7594 22.6938 23.8637 22.6448 23.9532 22.5746C24.0427 22.5044 24.1151 22.4147 24.1648 22.3123C24.2145 22.21 24.2403 22.0977 24.2402 21.9839V11.5739C24.2406 11.4057 24.1843 11.2423 24.0806 11.1099C23.9769 10.9775 23.8316 10.8838 23.6682 10.8439L21.2692 10.2569C21.2533 9.70666 21.1549 9.16192 20.9772 8.64091L24.0252 9.38791C24.5144 9.50765 24.9492 9.78803 25.2602 10.1842C25.5711 10.5803 25.7401 11.0693 25.7402 11.5729V21.9849C25.7402 22.3259 25.6626 22.6623 25.5134 22.9689C25.3642 23.2755 25.1473 23.5442 24.8791 23.7546C24.6108 23.9651 24.2982 24.1118 23.965 24.1838C23.6317 24.2557 23.2864 24.251 22.9552 24.1699L19.0402 23.2109C18.9239 23.1827 18.8025 23.1827 18.6862 23.2109L13.1442 24.5409C12.7957 24.6243 12.4323 24.6233 12.0842 24.5379L7.45523 23.4049C6.96592 23.2851 6.53096 23.0046 6.22001 22.6082C5.90906 22.2119 5.74012 21.7227 5.74023 21.2189V10.8079C5.74012 10.4668 5.81758 10.13 5.96675 9.82324C6.11593 9.51644 6.33292 9.24758 6.60131 9.03699C6.86971 8.8264 7.18247 8.67959 7.51595 8.60768C7.84944 8.53577 8.19491 8.54064 8.52623 8.6219L10.3762 9.07491C10.2519 9.5662 10.196 10.0723 10.2102 10.5789L8.16923 10.0789C8.05881 10.0519 7.9437 10.0504 7.8326 10.0744C7.7215 10.0985 7.61731 10.1475 7.52792 10.2177C7.43853 10.2879 7.36628 10.3775 7.31661 10.4798C7.26694 10.582 7.24117 10.6942 7.24123 10.8079V21.2189C7.24108 21.3868 7.29727 21.5499 7.40079 21.682C7.50432 21.8142 7.6492 21.9078 7.81223 21.9479L11.8672 22.9409V15.3929C12.0192 15.6182 12.1686 15.8266 12.3152 16.0179Z" fill="white"/>
<defs>
<linearGradient id="paint0_linear_9438_2644" x1="0" y1="16" x2="32" y2="16" gradientUnits="userSpaceOnUse">
<stop stop-color="#572381"/>
<stop offset="1" stop-color="#C9266D"/>
</linearGradient>
</defs>
</svg>
